#Comment line ignore any data following # character 
#Hierarchical Translation and Rotation (.htr) file 
[Header]	
#Header keywords are followed by a single value 
FileType HTR		#Single word string
DataType HTRS		#Translation followed by rotation and scale data
FileVersion 1		#integer
NumSegments 84		#integer
NumFrames 2		#integer
DataFrameRate 30		#integer, data frame rate in this file
EulerRotationOrder ZYX
CalibrationUnits mm
RotationUnits Degrees
GlobalAxisofGravity Y
BoneLengthAxis Y
ScaleFactor 1.00
[SegmentNames&Hierarchy]
#CHILD	PARENT
MASTER GLOBAL
root MASTER
chest root
L_mid_tent01 root
R_mid_tent01 root
spine01 root
Bip01_Neck chest
L_humerus chest
R_humerus chest
weapon_bone chest
Bip01_Head Bip01_Neck
eye_left_bone Bip01_Head
eye_right_bone Bip01_Head
L_forearm L_humerus
L_front_hand L_forearm
L_weapon_bone L_forearm
L_front_hand01_01 L_front_hand
L_front_hand02_01 L_front_hand
L_front_hand03_01 L_front_hand
L_front_hand01_02 L_front_hand01_01
L_front_hand02_02 L_front_hand02_01
L_front_hand03_02 L_front_hand03_01
R_forearm R_humerus
R_front_hand R_forearm
R_weapon_bone R_forearm
R_front_hand01_01 R_front_hand
R_front_hand02_01 R_front_hand
R_front_hand03_01 R_front_hand
R_front_hand01_02 R_front_hand01_01
R_front_hand02_02 R_front_hand02_01
R_front_hand03_02 R_front_hand03_01
null_rope01_connect L_mid_tent01
Rope1_Seg01 null_rope01_connect
Rope1_Seg02 Rope1_Seg01
Rope1_Seg03 Rope1_Seg02
Rope1_Seg04 Rope1_Seg03
Rope1_Seg05 Rope1_Seg04
Rope1_Seg06 Rope1_Seg05
Rope1_Seg07 Rope1_Seg06
Rope1_Seg09 Rope1_Seg07
L_mid_hand01 Rope1_Seg09
L_mid_hand02 Rope1_Seg09
L_mid_hand03 Rope1_Seg09
null_rope02_connect R_mid_tent01
Rope2_Seg01 null_rope02_connect
Rope2_Seg02 Rope2_Seg01
Rope2_Seg03 Rope2_Seg02
Rope2_Seg04 Rope2_Seg03
Rope2_Seg05 Rope2_Seg04
Rope2_Seg06 Rope2_Seg05
Rope2_Seg07 Rope2_Seg06
Rope2_Seg09 Rope2_Seg07
R_mid_hand01 Rope2_Seg09
R_mid_hand02 Rope2_Seg09
R_mid_hand03 Rope2_Seg09
spine02 spine01
spine03 spine02
pelvis spine03
null_rope03_connect pelvis
null_rope04_connect pelvis
Rope3_Seg01 null_rope03_connect
Rope3_Seg02 Rope3_Seg01
Rope3_Seg03 Rope3_Seg02
Rope3_Seg04 Rope3_Seg03
Rope3_Seg05 Rope3_Seg04
Rope3_Seg06 Rope3_Seg05
Rope3_Seg07 Rope3_Seg06
Rope3_Seg08 Rope3_Seg07
Rope3_Seg09 Rope3_Seg08
R_rear_hand01 Rope3_Seg09
R_rear_hand02 Rope3_Seg09
R_rear_hand03 Rope3_Seg09
Rope4_Seg01 null_rope04_connect
Rope4_Seg02 Rope4_Seg01
Rope4_Seg03 Rope4_Seg02
Rope4_Seg04 Rope4_Seg03
Rope4_Seg05 Rope4_Seg04
Rope4_Seg06 Rope4_Seg05
Rope4_Seg07 Rope4_Seg06
Rope4_Seg08 Rope4_Seg07
Rope4_Seg09 Rope4_Seg08
L_rear_hand01 Rope4_Seg09
L_rear_hand02 Rope4_Seg09
L_rear_hand03 Rope4_Seg09
[BasePosition]
#SegmentName Tx, Ty, Tz, Rx, Ry, Rz, BoneLength
MASTER 0.000000 0.000000 0.000000 -90.000000 0.000000 0.000000 10.000000 
root 0.000000 0.000000 0.000000 0.000000 0.000000 0.000000 10.000000 
chest 0.000000 0.000000 0.000000 0.000000 0.000000 0.000000 10.000000 
L_mid_tent01 0.000000 0.000000 0.000000 0.000000 0.000000 0.000000 10.000000 
R_mid_tent01 0.000000 0.000000 0.000000 0.000000 0.000000 0.000000 10.000000 
spine01 0.000000 0.000000 0.000000 0.000000 0.000000 0.000000 10.000000 
Bip01_Neck 0.000000 0.000000 0.000000 0.000000 0.000000 0.000000 10.000000 
L_humerus 0.000000 0.000000 0.000000 0.000000 0.000000 0.000000 10.000000 
R_humerus 0.000000 0.000000 0.000000 0.000000 0.000000 0.000000 10.000000 
weapon_bone 0.000000 0.000000 0.000000 0.000000 0.000000 0.000000 10.000000 
Bip01_Head 0.000000 0.000000 0.000000 0.000000 0.000000 0.000000 10.000000 
eye_left_bone 0.000000 0.000000 0.000000 0.000000 0.000000 0.000000 10.000000 
eye_right_bone 0.000000 0.000000 0.000000 0.000000 0.000000 0.000000 10.000000 
L_forearm 0.000000 0.000000 0.000000 0.000000 0.000000 0.000000 10.000000 
L_front_hand 0.000000 0.000000 0.000000 0.000000 0.000000 0.000000 10.000000 
L_weapon_bone 0.000000 0.000000 0.000000 0.000000 0.000000 0.000000 10.000000 
L_front_hand01_01 0.000000 0.000000 0.000000 0.000000 0.000000 0.000000 10.000000 
L_front_hand02_01 0.000000 0.000000 0.000000 0.000000 0.000000 0.000000 10.000000 
L_front_hand03_01 0.000000 0.000000 0.000000 0.000000 0.000000 0.000000 10.000000 
L_front_hand01_02 0.000000 0.000000 0.000000 0.000000 0.000000 0.000000 10.000000 
L_front_hand02_02 0.000000 0.000000 0.000000 0.000000 0.000000 0.000000 10.000000 
L_front_hand03_02 0.000000 0.000000 0.000000 0.000000 0.000000 0.000000 10.000000 
R_forearm 0.000000 0.000000 0.000000 0.000000 0.000000 0.000000 10.000000 
R_front_hand 0.000000 0.000000 0.000000 0.000000 0.000000 0.000000 10.000000 
R_weapon_bone 0.000000 0.000000 0.000000 0.000000 0.000000 0.000000 10.000000 
R_front_hand01_01 0.000000 0.000000 0.000000 0.000000 0.000000 0.000000 10.000000 
R_front_hand02_01 0.000000 0.000000 0.000000 0.000000 0.000000 0.000000 10.000000 
R_front_hand03_01 0.000000 0.000000 0.000000 0.000000 0.000000 0.000000 10.000000 
R_front_hand01_02 0.000000 0.000000 0.000000 0.000000 0.000000 0.000000 10.000000 
R_front_hand02_02 0.000000 0.000000 0.000000 0.000000 0.000000 0.000000 10.000000 
R_front_hand03_02 0.000000 0.000000 0.000000 0.000000 0.000000 0.000000 10.000000 
null_rope01_connect 0.000000 0.000000 0.000000 0.000000 0.000000 0.000000 10.000000 
Rope1_Seg01 0.000000 0.000000 0.000000 0.000000 0.000000 0.000000 10.000000 
Rope1_Seg02 0.000000 0.000000 0.000000 0.000000 0.000000 0.000000 10.000000 
Rope1_Seg03 0.000000 0.000000 0.000000 0.000000 0.000000 0.000000 10.000000 
Rope1_Seg04 0.000000 0.000000 0.000000 0.000000 0.000000 0.000000 10.000000 
Rope1_Seg05 0.000000 0.000000 0.000000 0.000000 0.000000 0.000000 10.000000 
Rope1_Seg06 0.000000 0.000000 0.000000 0.000000 0.000000 0.000000 10.000000 
Rope1_Seg07 0.000000 0.000000 0.000000 0.000000 0.000000 0.000000 10.000000 
Rope1_Seg09 0.000000 0.000000 0.000000 0.000000 0.000000 0.000000 10.000000 
L_mid_hand01 0.000000 0.000000 0.000000 0.000000 0.000000 0.000000 10.000000 
L_mid_hand02 0.000000 0.000000 0.000000 0.000000 0.000000 0.000000 10.000000 
L_mid_hand03 0.000000 0.000000 0.000000 0.000000 0.000000 0.000000 10.000000 
null_rope02_connect 0.000000 0.000000 0.000000 0.000000 0.000000 0.000000 10.000000 
Rope2_Seg01 0.000000 0.000000 0.000000 0.000000 0.000000 0.000000 10.000000 
Rope2_Seg02 0.000000 0.000000 0.000000 0.000000 0.000000 0.000000 10.000000 
Rope2_Seg03 0.000000 0.000000 0.000000 0.000000 0.000000 0.000000 10.000000 
Rope2_Seg04 0.000000 0.000000 0.000000 0.000000 0.000000 0.000000 10.000000 
Rope2_Seg05 0.000000 0.000000 0.000000 0.000000 0.000000 0.000000 10.000000 
Rope2_Seg06 0.000000 0.000000 0.000000 0.000000 0.000000 0.000000 10.000000 
Rope2_Seg07 0.000000 0.000000 0.000000 0.000000 0.000000 0.000000 10.000000 
Rope2_Seg09 0.000000 0.000000 0.000000 0.000000 0.000000 0.000000 10.000000 
R_mid_hand01 0.000000 0.000000 0.000000 0.000000 0.000000 0.000000 10.000000 
R_mid_hand02 0.000000 0.000000 0.000000 0.000000 0.000000 0.000000 10.000000 
R_mid_hand03 0.000000 0.000000 0.000000 0.000000 0.000000 0.000000 10.000000 
spine02 0.000000 0.000000 0.000000 0.000000 0.000000 0.000000 10.000000 
spine03 0.000000 0.000000 0.000000 0.000000 0.000000 0.000000 10.000000 
pelvis 0.000000 0.000000 0.000000 0.000000 0.000000 0.000000 10.000000 
null_rope03_connect 0.000000 0.000000 0.000000 0.000000 0.000000 0.000000 10.000000 
null_rope04_connect 0.000000 0.000000 0.000000 0.000000 0.000000 0.000000 10.000000 
Rope3_Seg01 0.000000 0.000000 0.000000 0.000000 0.000000 0.000000 10.000000 
Rope3_Seg02 0.000000 0.000000 0.000000 0.000000 0.000000 0.000000 10.000000 
Rope3_Seg03 0.000000 0.000000 0.000000 0.000000 0.000000 0.000000 10.000000 
Rope3_Seg04 0.000000 0.000000 0.000000 0.000000 0.000000 0.000000 10.000000 
Rope3_Seg05 0.000000 0.000000 0.000000 0.000000 0.000000 0.000000 10.000000 
Rope3_Seg06 0.000000 0.000000 0.000000 0.000000 0.000000 0.000000 10.000000 
Rope3_Seg07 0.000000 0.000000 0.000000 0.000000 0.000000 0.000000 10.000000 
Rope3_Seg08 0.000000 0.000000 0.000000 0.000000 0.000000 0.000000 10.000000 
Rope3_Seg09 0.000000 0.000000 0.000000 0.000000 0.000000 0.000000 10.000000 
R_rear_hand01 0.000000 0.000000 0.000000 0.000000 0.000000 0.000000 10.000000 
R_rear_hand02 0.000000 0.000000 0.000000 0.000000 0.000000 0.000000 10.000000 
R_rear_hand03 0.000000 0.000000 0.000000 0.000000 0.000000 0.000000 10.000000 
Rope4_Seg01 0.000000 0.000000 0.000000 0.000000 0.000000 0.000000 10.000000 
Rope4_Seg02 0.000000 0.000000 0.000000 0.000000 0.000000 0.000000 10.000000 
Rope4_Seg03 0.000000 0.000000 0.000000 0.000000 0.000000 0.000000 10.000000 
Rope4_Seg04 0.000000 0.000000 0.000000 0.000000 0.000000 0.000000 10.000000 
Rope4_Seg05 0.000000 0.000000 0.000000 0.000000 0.000000 0.000000 10.000000 
Rope4_Seg06 0.000000 0.000000 0.000000 0.000000 0.000000 0.000000 10.000000 
Rope4_Seg07 0.000000 0.000000 0.000000 0.000000 0.000000 0.000000 10.000000 
Rope4_Seg08 0.000000 0.000000 0.000000 0.000000 0.000000 0.000000 10.000000 
Rope4_Seg09 0.000000 0.000000 0.000000 0.000000 0.000000 0.000000 10.000000 
L_rear_hand01 0.000000 0.000000 0.000000 0.000000 0.000000 0.000000 10.000000 
L_rear_hand02 0.000000 0.000000 0.000000 0.000000 0.000000 0.000000 10.000000 
L_rear_hand03 0.000000 0.000000 0.000000 0.000000 0.000000 0.000000 10.000000 
#Beginning of Data. Separated by tabs
#Fr	Tx	Ty	Tz	Rx	Ry	Rz	SF
[MASTER]
7 366.185059 -20.575581 779.913025 0.001660 0.001660 0.001660 861.846375
8 497.904724 -33.150509 903.282959 0.001660 0.001660 0.001660 1031.953491
[root]
7 23.469856 -78.814789 1308.662109 -57.968582 -16.609285 -99.120949 1311.243286
8 67.247978 -32.547394 1283.081177 -50.234718 -15.557060 -101.418442 1285.254395
[chest]
7 -84.512650 -34.090519 0.000000 -1.690470 -11.880000 -173.840622 91.129311
8 -84.512650 -34.090519 0.000000 4.283837 -8.165741 -174.395569 91.129311
[L_mid_tent01]
7 27.299049 22.179197 -249.918747 -0.751970 14.508457 69.046089 252.381729
8 27.299046 22.179213 -249.918762 -1.343754 17.933611 68.199730 252.381729
[R_mid_tent01]
7 23.228794 24.509907 226.238495 169.577087 -30.652271 67.721825 228.744751
8 23.228794 24.509907 226.238495 171.441574 -25.223787 62.099098 228.744751
[spine01]
7 -0.361383 -0.195265 0.000000 0.001882 0.001403 16.566164 0.410763
8 -0.361383 -0.195265 0.000000 0.001869 0.001420 15.559094 0.410763
[Bip01_Neck]
7 165.484543 71.581718 0.000119 176.643677 -1.657967 43.431911 180.302734
8 165.484543 71.581718 0.000119 176.643677 -1.657967 43.431911 180.302734
[L_humerus]
7 -13.983130 -135.272980 -120.471481 163.029480 28.196259 -139.909180 181.680161
8 -13.983130 -135.272980 -120.471481 168.400726 14.935223 -141.835892 181.680161
[R_humerus]
7 -13.983309 -135.273102 125.287651 -174.389755 -27.587494 -132.065399 184.909012
8 -13.983309 -135.273102 125.287651 -178.676819 -13.932177 -135.458588 184.909012
[weapon_bone]
7 235.964890 -300.705902 0.000000 0.000000 -89.951546 -128.212341 382.234833
8 235.964890 -300.705902 0.000000 0.000000 -89.951546 -128.212341 382.234833
[Bip01_Head]
7 213.589020 185.312637 16.979069 13.911231 1.893492 -43.876839 283.283112
8 213.648819 185.146164 19.126894 15.145485 0.281623 -43.885914 283.356262
[eye_left_bone]
7 -24.626970 125.451866 -64.772606 0.000000 -90.000000 -99.840431 143.318359
8 -24.626970 125.451866 -64.772606 0.000000 -90.000000 -99.840431 143.318359
[eye_right_bone]
7 -24.626970 125.451866 64.327362 0.000000 -89.972023 80.156380 143.117676
8 -24.626970 125.451866 64.327362 0.000000 -89.965736 80.156380 143.117676
[L_forearm]
7 322.776093 0.000000 -0.000119 0.000423 -0.002309 -110.765602 322.776093
8 322.776093 0.000000 -0.000119 0.000426 -0.002308 -110.891754 322.776093
[L_front_hand]
7 241.149185 -0.042021 -3.300071 -178.667953 -1.835447 -27.422342 241.171753
8 241.149185 -0.042021 -3.300071 -178.667953 -1.835447 -27.422350 241.171753
[L_weapon_bone]
7 156.183838 0.000000 0.000000 0.000014 0.000007 0.000001 156.183838
8 156.183838 0.000000 0.000000 0.000014 0.000007 0.000001 156.183838
[L_front_hand01_01]
7 86.095154 20.947098 -0.655860 -0.322964 -0.505554 70.186295 88.609184
8 86.095154 20.947098 -0.655860 -0.304872 -0.514302 68.276070 88.609184
[L_front_hand02_01]
7 86.935165 -11.437475 24.513514 146.960190 -57.330456 -52.657879 91.046425
8 86.935165 -11.437475 24.513514 144.546585 -56.255680 -49.772907 91.046425
[L_front_hand03_01]
7 86.637497 -14.123976 -20.424902 -146.989044 55.546074 -54.434795 90.126129
8 86.637497 -14.123976 -20.424902 -144.732666 54.475910 -51.681892 90.126129
[L_front_hand01_02]
7 71.020905 -0.000179 0.000030 0.000316 -0.002326 -105.473587 71.020905
8 71.020905 -0.000179 0.000030 0.000316 -0.002326 -105.453369 71.020905
[L_front_hand02_02]
7 71.020927 -0.000119 0.000060 0.000316 -0.002326 -105.473587 71.020927
8 71.020927 -0.000119 0.000060 0.000316 -0.002326 -105.453369 71.020927
[L_front_hand03_02]
7 71.020905 -0.000060 0.000060 0.000316 -0.002326 -105.473587 71.020905
8 71.020905 -0.000060 0.000060 0.000316 -0.002326 -105.453369 71.020905
[R_forearm]
7 322.776428 -0.000060 0.000030 0.201317 0.067546 -109.419708 322.776428
8 322.776428 -0.000060 0.000030 0.201238 0.067780 -109.552956 322.776428
[R_front_hand]
7 238.847015 -0.006795 2.210259 -2.635298 -10.645460 -26.312502 238.857239
8 238.847015 -0.006795 2.210259 -2.635298 -10.645461 -26.312506 238.857239
[R_weapon_bone]
7 155.664093 0.002503 -0.000030 0.003487 0.001180 -90.988930 155.664078
8 155.664093 0.002503 -0.000030 0.003487 0.001180 -90.988930 155.664078
[R_front_hand01_01]
7 87.624611 14.231146 22.918642 -146.976166 -57.336147 52.779381 91.683487
8 87.624611 14.231146 22.918642 -144.302139 -56.138653 49.586014 91.683487
[R_front_hand02_01]
7 89.356956 14.367283 -19.491137 147.400665 55.711212 55.166904 92.579636
8 89.356956 14.367283 -19.491137 144.866989 54.526855 52.081070 92.579636
[R_front_hand03_01]
7 87.286232 -22.307278 -0.143439 0.123256 -0.437630 -70.429710 90.091743
8 87.286232 -22.307278 -0.143439 0.104166 -0.441299 -68.306496 90.091743
[R_front_hand01_02]
7 71.020905 0.000060 0.000119 0.002323 -0.000334 106.381714 71.020905
8 71.020905 0.000060 0.000119 0.002323 -0.000334 106.381721 71.020905
[R_front_hand02_02]
7 71.020844 -0.000030 -0.000119 0.002323 -0.000334 106.381714 71.020836
8 71.020844 -0.000030 -0.000119 0.002323 -0.000334 106.381721 71.020836
[R_front_hand03_02]
7 71.020905 0.000000 0.000030 0.002323 -0.000334 106.381714 71.020905
8 71.020905 0.000000 0.000030 0.002323 -0.000334 106.381721 71.020905
[null_rope01_connect]
7 328.732483 0.000000 -0.000238 -22.918959 -69.648140 60.639042 328.732483
8 328.732483 0.000000 -0.000238 -23.256681 -64.677864 60.878098 328.732483
[Rope1_Seg01]
7 0.000000 0.000000 0.000000 -114.769966 79.810150 75.297287 0.000000
8 0.000000 0.000000 0.000000 -128.516937 80.851875 62.877991 0.000000
[Rope1_Seg02]
7 139.999863 -0.000179 0.000000 -3.428619 7.282258 -1.946961 139.999863
8 139.999863 -0.000179 0.000000 -3.818177 10.113181 -5.797923 139.999863
[Rope1_Seg03]
7 139.999924 0.000060 -0.000060 -4.660149 7.288951 -1.198023 139.999924
8 139.999924 0.000060 -0.000060 -6.698352 10.866765 -5.409943 139.999924
[Rope1_Seg04]
7 139.999924 -0.000060 -0.000119 -4.570096 3.856176 2.289449 139.999924
8 139.999924 -0.000060 -0.000119 -8.073156 8.129937 -2.849611 139.999924
[Rope1_Seg05]
7 139.999832 0.000119 -0.000060 -8.950511 11.140400 -3.320419 139.999832
8 139.999832 0.000119 -0.000060 -20.957714 11.782744 -2.690579 139.999832
[Rope1_Seg06]
7 139.999954 0.000119 -0.000060 -33.049603 20.123308 -6.736643 139.999954
8 139.999954 0.000119 -0.000060 -54.981823 16.671974 2.197803 139.999954
[Rope1_Seg07]
7 139.999985 0.000060 0.000000 -40.488262 12.484069 3.468666 139.999985
8 139.999985 0.000060 0.000000 -26.825485 5.408844 10.550335 139.999985
[Rope1_Seg09]
7 121.602913 0.000119 -0.000089 -89.793175 -1.359789 0.847147 121.602913
8 121.602913 0.000119 -0.000089 -89.793175 -1.359789 0.847147 121.602913
[L_mid_hand01]
7 103.859421 1.038730 8.195221 112.987694 -50.601231 -18.681452 104.187431
8 103.859421 1.038730 8.195221 111.216118 -46.770245 -16.325294 104.187431
[L_mid_hand02]
7 105.572853 -4.139662 -10.864139 -153.018723 36.866016 -49.082405 106.211075
8 105.572853 -4.139662 -10.864139 -150.384232 34.904892 -44.592522 106.211075
[L_mid_hand03]
7 104.641464 17.579376 -3.913581 -11.755014 14.733717 54.618217 106.179977
8 104.641464 17.579376 -3.913581 -12.781255 13.855397 50.452671 106.179977
[null_rope02_connect]
7 328.732849 0.000179 -0.000119 -143.571075 36.227852 -15.919230 328.732849
8 328.732849 0.000179 -0.000119 -148.316513 36.127010 -26.401234 328.732849
[Rope2_Seg01]
7 0.000034 0.000130 0.000122 157.883728 -39.741272 -21.945993 0.000181
8 0.000031 0.000132 0.000142 149.267303 -41.588924 -14.458066 0.000197
[Rope2_Seg02]
7 139.999741 -0.000060 -0.000119 -7.908097 6.031378 -8.529130 139.999756
8 139.999741 -0.000060 -0.000119 -1.186637 7.693855 -4.317445 139.999756
[Rope2_Seg03]
7 140.000107 0.000030 0.000000 0.181613 3.526012 -1.388127 140.000107
8 140.000107 0.000030 0.000000 2.411882 5.210966 0.304547 140.000107
[Rope2_Seg04]
7 139.999802 0.000000 -0.000060 -3.762978 4.630538 -6.051435 139.999802
8 139.999802 0.000000 -0.000060 -0.577080 5.395988 -3.031285 139.999802
[Rope2_Seg05]
7 139.999985 -0.000060 0.000119 -9.095750 10.457430 -18.246368 139.999985
8 139.999985 -0.000060 0.000119 -8.391357 10.016977 -19.248541 139.999985
[Rope2_Seg06]
7 139.999893 -0.000030 -0.000119 -3.174417 9.050015 -11.793316 139.999893
8 139.999893 -0.000030 -0.000119 -2.846876 8.574491 -12.973265 139.999893
[Rope2_Seg07]
7 139.999893 0.000060 -0.000060 -0.757780 5.060480 -5.851301 139.999893
8 139.999893 0.000060 -0.000060 -0.449163 4.491396 -5.804411 139.999893
[Rope2_Seg09]
7 121.338966 0.000089 -0.000060 33.793236 -1.359788 -0.847141 121.338966
8 121.338966 0.000089 -0.000060 33.793236 -1.359788 -0.847141 121.338966
[R_mid_hand01]
7 104.680779 11.144459 -10.335981 -25.192720 41.648331 57.439419 105.778534
8 104.680779 11.144459 -10.335981 -27.387493 40.402237 54.098232 105.778534
[R_mid_hand02]
7 104.070427 2.443552 8.231699 60.800964 -59.436069 26.232430 104.424065
8 104.070427 2.443552 8.231699 62.946606 -56.952805 23.709984 104.424065
[R_mid_hand03]
7 106.028137 -11.221827 -5.996406 -174.361145 14.799505 -66.152626 106.788818
8 106.028137 -11.221827 -5.996406 -173.630432 14.503003 -63.260223 106.788818
[spine02]
7 129.756927 0.001550 0.000119 0.492440 -4.029807 -14.858959 129.756927
8 129.756927 0.001550 0.000119 0.508774 -4.027711 -15.044197 129.756927
[spine03]
7 78.614067 0.081299 -4.898995 2.025333 3.768590 18.383764 78.766602
8 78.614067 0.081243 -4.898995 2.025663 3.768413 18.393801 78.766602
[pelvis]
7 169.435242 0.051022 0.000000 -0.051578 -0.182007 11.574546 169.435257
8 169.435242 0.051022 0.000000 -0.049666 -0.182538 10.372173 169.435257
[null_rope03_connect]
7 -1.257226 -2.466202 137.391083 2.384339 -58.212597 75.152443 137.418976
8 -1.257226 -2.466202 137.391083 2.100286 -50.711914 78.273842 137.418976
[null_rope04_connect]
7 -1.259640 -2.480268 -137.844437 2.384339 -58.212597 75.152443 137.872513
8 -1.259640 -2.480268 -137.844437 2.100286 -50.711914 78.273842 137.872513
[Rope3_Seg01]
7 0.000000 0.000000 0.000000 16.431013 -0.014474 -62.280350 0.000000
8 0.000000 0.000000 0.000000 14.407330 -9.179568 -62.549828 0.000000
[Rope3_Seg02]
7 139.999924 -0.000119 0.000060 -12.522475 -15.011863 23.681278 139.999924
8 139.999924 -0.000119 0.000060 -10.858129 -15.586169 23.135040 139.999924
[Rope3_Seg03]
7 139.999924 -0.000119 0.000119 -15.302487 -19.128899 18.486284 139.999924
8 139.999924 -0.000119 0.000119 -12.227884 -18.523653 16.660946 139.999924
[Rope3_Seg04]
7 139.999924 0.000119 0.000000 -7.672448 -14.496404 6.702350 139.999924
8 139.999924 0.000119 0.000000 -5.866123 -13.605026 5.775664 139.999924
[Rope3_Seg05]
7 139.999924 -0.000238 0.000060 -1.300934 -0.907780 4.474533 139.999924
8 139.999924 -0.000238 0.000060 -1.088968 -0.343016 5.407885 139.999924
[Rope3_Seg06]
7 139.999893 -0.000119 -0.000060 3.101431 9.379104 8.886960 139.999893
8 139.999893 -0.000119 -0.000060 3.020053 10.717357 12.472368 139.999893
[Rope3_Seg07]
7 139.999771 0.000060 -0.000119 8.072186 13.924695 12.686806 139.999771
8 139.999771 0.000060 -0.000119 10.037074 16.709192 18.653494 139.999771
[Rope3_Seg08]
7 139.999985 -0.000060 0.000000 8.177419 9.455221 8.635765 139.999985
8 139.999985 -0.000060 0.000000 13.142468 10.516204 10.790972 139.999985
[Rope3_Seg09]
7 90.185997 -0.000179 -0.000060 89.793228 -1.359877 -0.847183 90.185997
8 90.185997 -0.000179 -0.000060 89.793228 -1.359877 -0.847183 90.185997
[R_rear_hand01]
7 103.366196 -6.073594 -10.757982 -172.199173 23.472191 -60.427734 104.101845
8 103.366196 -6.073594 -10.757982 -170.781250 22.977589 -56.830040 104.101845
[R_rear_hand02]
7 100.509819 12.039542 -7.992327 -21.205959 33.223911 57.720795 101.543350
8 100.509819 12.039542 -7.992327 -23.185047 31.960989 54.046936 101.543350
[R_rear_hand03]
7 101.539970 5.215704 5.435467 78.625000 -59.850559 13.735089 101.819031
8 101.539970 5.215704 5.435467 79.639084 -56.567936 12.539787 101.819031
[Rope4_Seg01]
7 0.000055 -0.000038 -0.000153 -88.315521 20.435213 -73.722580 0.000167
8 0.000066 -0.000038 -0.000153 -88.297096 27.808809 -77.384605 0.000171
[Rope4_Seg02]
7 139.999985 0.000060 0.000119 2.578708 -9.387909 2.530049 139.999985
8 139.999985 0.000060 0.000119 1.615447 -10.873853 0.165880 139.999985
[Rope4_Seg03]
7 139.999924 0.000000 -0.000238 4.020504 -9.724060 3.141640 139.999924
8 139.999924 0.000000 -0.000238 2.688530 -10.611665 0.487249 139.999924
[Rope4_Seg04]
7 139.999985 0.000000 0.000119 7.349349 -10.684540 5.842396 139.999985
8 139.999985 0.000000 0.000119 4.773745 -9.980784 2.461800 139.999985
[Rope4_Seg05]
7 139.999802 -0.000060 -0.000119 8.437122 -8.414809 6.151306 139.999802
8 139.999802 -0.000060 -0.000119 4.160679 -7.456938 1.223236 139.999802
[Rope4_Seg06]
7 139.999924 0.000000 0.000060 1.267291 -3.717025 -0.573915 139.999924
8 139.999924 0.000000 0.000060 1.315319 -5.710257 -1.614012 139.999924
[Rope4_Seg07]
7 139.999802 0.000000 0.000000 -6.164747 -1.438372 -6.194808 139.999802
8 139.999802 0.000000 0.000000 -0.901048 -5.016785 -3.132587 139.999802
[Rope4_Seg08]
7 139.999924 0.000000 0.000119 -5.558753 -1.031707 -3.732037 139.999924
8 139.999924 0.000000 0.000119 -0.771600 -3.757061 -1.319039 139.999924
[Rope4_Seg09]
7 90.185791 0.000060 0.000060 -135.617828 2.228885 0.850567 90.185791
8 90.185791 0.000060 0.000060 -135.617828 2.228885 0.850567 90.185791
[L_rear_hand01]
7 101.696655 -8.392275 -7.654577 -30.967808 -24.555592 142.276398 102.329041
8 101.696655 -8.392275 -7.654577 -31.684452 -23.583008 144.025742 102.329041
[L_rear_hand02]
7 102.726799 -1.568258 5.773216 82.497200 40.606579 171.238358 102.900848
8 102.726799 -1.568258 5.773216 82.701553 38.753956 171.553619 102.900848
[L_rear_hand03]
7 104.552910 9.721220 -10.420293 -164.603775 -19.511114 -140.104080 105.519653
8 104.552910 9.721220 -10.420293 -163.975403 -19.004421 -142.009338 105.519653
